<?xml version="1.0" encoding="UTF-8" standalone="no"?>
<!-- Created with Inkscape (http://www.inkscape.org/) -->

<svg
   width="210mm"
   height="297mm"
   viewBox="0 0 210 297"
   version="1.1"
   id="svg1"
   inkscape:version="1.4 (86a8ad7, 2024-10-11)"
   sodipodi:docname="Signature.svg"
   xmlns:inkscape="http://www.inkscape.org/namespaces/inkscape"
   xmlns:sodipodi="http://sodipodi.sourceforge.net/DTD/sodipodi-0.dtd"
   xmlns="http://www.w3.org/2000/svg"
   xmlns:svg="http://www.w3.org/2000/svg">
  <sodipodi:namedview
     id="namedview1"
     pagecolor="#ffffff"
     bordercolor="#000000"
     borderopacity="0.25"
     inkscape:showpageshadow="2"
     inkscape:pageopacity="0.0"
     inkscape:pagecheckerboard="0"
     inkscape:deskcolor="#d1d1d1"
     inkscape:document-units="mm"
     inkscape:zoom="0.68862935"
     inkscape:cx="396.43968"
     inkscape:cy="561.25984"
     inkscape:window-width="1920"
     inkscape:window-height="991"
     inkscape:window-x="-9"
     inkscape:window-y="-9"
     inkscape:window-maximized="1"
     inkscape:current-layer="layer1" />
  <defs
     id="defs1" />
  <g
     inkscape:label="Layer 1"
     inkscape:groupmode="layer"
     id="layer1">
    <path
       style="fill:#000000;stroke:#000000;stroke-width:1.565;stroke-dasharray:none;stroke-opacity:1"
       id="path1"
       d="m 64.578889,162.1534 c 0.426701,-0.79654 0.829918,-1.60612 1.280104,-2.38964 2.696554,-4.69316 5.662536,-9.23067 8.473548,-13.85471 2.337131,-3.84452 3.163205,-5.30179 5.365798,-9.08501 0.04642,-0.0793 2.607048,-4.75142 3.403198,-5.27492 0.229018,-0.15059 0.810598,0.40907 0.590423,0.57231 -0.710462,0.52675 -2.093773,0.0738 -2.512526,0.85278 -0.676889,1.25924 -0.180075,2.85372 -0.247486,4.28177 -0.08383,1.77596 -0.137485,3.5532 -0.206229,5.3298 -0.02437,4.07604 -0.231778,6.39569 0.480615,10.39708 0.249571,1.40179 0.518737,2.83011 1.113298,4.12386 0.464696,1.01117 1.027467,2.14052 2.007695,2.66735 5.19873,2.79412 5.669788,1.73759 10.274142,0.16222 4.83158,-2.61863 4.008643,-2.01574 8.501391,-5.06289 1.13936,-0.77275 2.22846,-1.61814 3.37089,-2.38635 0.78273,-0.52633 3.04483,-2.1862 4.36961,-2.18148 0.42578,0.002 0.76134,0.38149 1.14201,0.57224 -0.44569,-0.003 -1.52105,-0.41609 -1.33708,-0.0101 0.41075,0.90635 1.3706,1.48375 2.23125,1.9832 2.01473,1.16919 4.10456,2.26339 6.32105,2.97985 1.73278,0.56012 3.58511,0.6994 5.40282,0.80982 4.84088,0.29408 7.75903,-0.27513 12.54068,-0.84937 1.84718,-0.41832 3.77865,-0.56266 5.54155,-1.25496 0.61844,-0.24286 5.69045,-2.62564 2.40654,-4.71166 -2.5966,-1.64942 -5.60143,-2.6748 -8.60731,-3.32872 -5.86302,-1.27548 -19.14567,-0.77043 -24.37243,-0.7295 -21.970076,1.20433 -8.81803,0.39481 -30.411102,1.92476 -4.281697,0.30337 -8.557879,0.70764 -12.84633,0.89249 -2.815297,0.12135 -5.638464,-0.0973 -8.453692,0.0256 -0.320085,0.014 0.60357,0.39074 0.911926,0.30374 1.755712,-0.49537 3.396549,-1.33234 5.094822,-1.9985 12.596344,-3.50987 10.594054,-3.14451 24.399568,-6.09351 4.493779,-0.95992 8.997669,-1.87542 13.515448,-2.71516 4.14537,-0.77053 8.31401,-1.41007 12.47101,-2.11511 0,0 -0.0655,-0.046 -0.0655,-0.046 v 0 c -4.20167,0.67379 -8.40126,1.36075 -12.60503,2.02139 -4.750175,0.7465 -9.515797,1.39661 -14.256688,2.2 -12.784005,2.16636 -13.823013,2.54197 -25.779293,5.19448 -1.9299,0.79411 -5.046978,0.43209 -5.789705,2.38234 -0.547169,1.43676 2.504567,2.01973 4.024053,2.25391 2.617861,0.40344 5.293952,-0.21778 7.935682,-0.41074 4.195387,-0.30646 8.37978,-0.74959 12.572764,-1.08733 17.13511,-1.38021 13.00638,-1.03741 30.496167,-1.84986 16.6511,0.207 10.42766,-0.32952 25.14452,1.38262 1.30701,0.15206 2.77435,-0.13654 3.91261,0.52359 3.13076,1.81569 -0.7293,4.05388 -1.81768,4.51358 -1.71844,0.72582 -3.63069,0.85874 -5.44603,1.28812 -4.93139,0.57892 -7.57635,1.13258 -12.57482,0.73755 -1.84596,-0.14589 -3.64822,-0.63725 -5.47484,-0.94101 -0.51486,-0.0856 -1.09656,0.0327 -1.54923,-0.22709 -2.22625,-1.27774 -3.31867,-4.13599 -5.92171,-4.92268 -0.40419,-0.11842 -0.79433,-0.40495 -1.21258,-0.35525 -1.23208,0.14638 -3.47017,1.8963 -4.17919,2.39875 -3.79384,2.68855 -7.48307,5.55984 -11.804301,7.39453 -1.443474,0.43648 -2.951898,0.69806 -4.330422,1.30945 -0.494067,0.21912 -0.671727,1.34886 -1.164939,1.12782 -1.030642,-0.46189 -1.648518,-1.60538 -2.154137,-2.61529 -0.642149,-1.28259 -0.947748,-2.71812 -1.221076,-4.12621 -0.770808,-3.97094 -0.537504,-6.31363 -0.500494,-10.36235 0.1015,-1.75629 0.165124,-3.51518 0.304499,-5.26887 0.111691,-1.40535 0.789966,-2.83771 0.448476,-4.20551 -0.391747,-1.56912 -1.556035,-2.84911 -2.53176,-4.13889 -0.136226,-0.18007 -0.509858,-0.25286 -0.67078,-0.0945 -0.567108,0.55821 -0.881409,1.32634 -1.280261,2.01491 -0.653616,1.1284 -1.250346,2.28881 -1.875517,3.43321 -2.644272,4.82377 -5.351658,9.59925 -8.211031,14.30005 -0.0453,0.0745 -5.024374,8.08774 -5.420707,8.76553 -0.466005,0.79694 -0.871051,1.628 -1.306576,2.442 z"
       inkscape:export-filename="Signature.svg"
       inkscape:export-xdpi="96"
       inkscape:export-ydpi="96" />
  </g>
</svg>
